<svg xmlns="http://www.w3.org/2000/svg" version="1.1" xmlns:xlink="http://www.w3.org/1999/xlink" xmlns:svgjs="http://svgjs.dev/svgjs" width="1500" height="1500" viewBox="0 0 1500 1500"><rect width="1500" height="1500" fill="#42cd9e"></rect><g transform="matrix(0.6666666666666666,0,0,0.6666666666666666,248.44237538940803,189.33333333333348)"><svg viewBox="0 0 321 360" data-background-color="#42cd9e" preserveAspectRatio="xMidYMid meet" height="1682" width="1500" xmlns="http://www.w3.org/2000/svg" xmlns:xlink="http://www.w3.org/1999/xlink"><g id="tight-bounds" transform="matrix(1,0,0,1,0.5000025000000505,0)"><svg viewBox="0 0 320 360" height="360" width="320"><g><svg></svg></g><g><svg viewBox="0 0 320 360" height="360" width="320"><g><path transform="translate(-19.44751,3.1739) scale(3.53591,3.53591)" d="M67.6 10.7c0.2 0 1.8 0.8 2.7 1.1-0.3 0.1-1-0.2-1.8-0.5 0.2 0 0.6 0.1 1 0.3-0.2-0.2-1.7-0.7-1.9-0.9M52.7 7.6c0.3-0.1 3.8 0.4 5.4 0.5 0.1-0.1-0.2-0.1-0.6-0.2 0.5-0.1 1.5 0.2 2.2 0.3-2.1 0.1-4.4-0.5-6.4-0.3-0.7 0-0.2-0.2-0.6-0.3M49.8 7.6c1.8 0 3.2 0 0.6 0.2-0.3-0.1-0.7-0.1-0.6-0.2M78.1 15.9c0.2 0 1 0.9 1.4 1.2-0.1 0.1-0.9-0.7-1.3-1 0.1 0.1 0 0-0.1-0.2M76.1 14.6c-0.8-0.7-1.1-0.7-1.2-1.1 0.7 0.4 1.2 0.8 1.2 1.1M63.2 8.3c0.1-0.1 0.3 0.1 0.8 0.2-0.6-0.1-0.5 0-0.3 0.2-0.7-0.1-0.9-0.2-0.7-0.4 0.4 0.2 0.5 0.1 0.2 0M34.8 9.5c0-0.1 0.4-0.3 0.7-0.4-0.3 0.2-0.2 0.3 0.3 0.1 0 0.1-0.6 0.3-1 0.5 0.2-0.1 0.4-0.4 0-0.2M65.2 7.3c-0.3 0.1-1.4-0.5-2.5-0.7-0.6-0.2 2.4 0.5 2.5 0.7M6.2 56.7c0.6 2.5 0.2 2.4 0 0M6.3 41.7c0.1-0.4 0.2-1.5 0.3-1.4-0.3 2.4-0.8 3.5-0.9 5.3 0.3-1.6-0.1 0.9-0.2 1.5 0.1 0.8 0.1-0.5 0.3-0.3 0.2 0.3-0.4 4.5-0.2 2.2-0.2 2.1 0 4.4 0.4 5-0.5 3.2 2 10.4 2.5 11.9 0.1 0.1 0-0.5 0.2-0.1 0.2 1.3 1.1 2.2 1.4 3.6 0.3 0.4 1.5 2.6 1.7 3.1 0.4 0.8 0.6 0.7 1 1.5 1.2 2.3 3.1 4.5 4.9 6.6 5.8 6.8 14.7 12.4 24.6 14.4 9.9 2.1 20.3 0.6 28.4-3.3 0.5-0.3 0.4-0.4 1-0.6 2.8-0.9 6.2-3.8 8.1-4.9 0.9-1 3.3-2.7 3.6-3.7 1.7-1.4 3.4-3.7 4.3-5.2 0.5-0.8 0.9-0.8 1.1-1.3-0.1 0 1.6-2.1 2.1-3.3-0.2 0-0.5 0.6-0.5 0 3.6-6.9 5.6-16.2 4.5-22.6 0.2 7.9-1.8 16.7-5.6 22.3-1.7 3.6-5.2 7.5-8.4 10.3-0.5 0.5-1 1.1-1.6 1.5-1.9 1.6-4 2.9-6.2 4.1-5.2 2.9-11 5.4-17.8 5.5 11.7-1 22.2-6.9 28-14.1-4.4 4.3-6.3 6-11.2 8.5-0.4 0.7-3.7 2.1-5.9 2.7 1.3-0.6 4-1.6 4.9-2.4-7.3 3.5-15.4 5.5-23 4.4 2.9 0 7 0.1 10.9-0.6 0.6-0.2 0.9-0.4 1.6-0.5 7.6-1.7 14.9-5.4 20.1-10.6-3 2.7-7.5 5.9-10.4 6.9 2.7-1.5 7.6-4.4 9.2-6.6-3.2 3.2-9.2 6.4-13 7.8-0.6 0.1 0.4-0.4-0.6 0-1.2 0.3-0.7 0.3-1 0.5-4.6 1.3-9.9 2.4-14.3 2-0.8-0.1-1.1-0.3-1.8-0.3-0.8-0.1-1.5-0.1-2.4-0.1-3.5-0.4-7.3-1.8-10.1-3-1.5-0.7-3-1.2-4.5-2.1-1.2-0.7-2.2-1.5-3.2-2.3-3.8-2.8-7-5.6-10-9.6-5.4-7.5-8.2-16.9-7.8-26.2 0.4-9.3 4.1-18.4 10-25.1-0.3 0.3 0.4-0.7 1-1.3 0 0.2-0.1 0.5 0.6-0.2 0.6-0.7-0.2-0.2 0.1-0.6 6.2-6.8 17-12.3 28.1-12.5 0.4-0.3 1.1-0.7 1.9-0.5 0 0.1-0.5 0.1-0.5 0.1 1.1-0.1 2.1-0.1 2.6 0.1 0.1-0.1-0.4-0.2 0-0.2 0.7 0.2 0.9 0 1.3 0.2-0.3 0-0.6 0-0.8 0.1 2.5 0 4.1 0.6 6.6 0.8-1.3-0.3-1.6-0.3-2.6-0.6 1.1 0.2 1.6 0.4 2.1 0.3-0.2 0-0.1-0.3 0.1-0.2 2 0.5 2.2 0.7 4.3 1.4 0.2-0.2-0.9-0.3-1.2-0.6 2 0.7 3.8 1.2 5 2-0.4-0.3-1.6-0.7-2.5-1.1-0.1 0.1 0.3 0.2 0.4 0.4-1-0.5-2.4-1-3.8-1.2 1.2 0.3 2 0.7 2.5 0.9-1.1-0.2-2.5-0.9-4.1-1.2 2.6 0.8 7.5 2.6 10.5 4.2-1.1-0.7-2.4-1.2-3.1-1.6 0.6 0.1 1.3 0.5 1.3 0.3 0.7 0.3 1.6 1 2.1 1.1-0.9-0.6-2.7-1.5-3.3-1.8 7.5 3.4 14.2 9.1 18.5 16.4 0.4 0.7 1 2.3 1.5 2.5-0.1-0.5-0.5-0.8-0.9-1.6 0.2 0 0.2-0.3 0-0.6-0.4-0.5 0 0.4-0.4-0.1-1.8-3.3-4-6.2-7.4-9.4 1.9 1.8 0.5 0.5 0.1-0.1 2.6 2.3 5.6 6.2 6.9 8.2-0.2-0.3-0.3-0.5-0.2-0.5 2.4 4.1 3.9 7.8 5.4 13.1 0.1 0.1 0-0.4 0.2-0.1 1 4.2 1.3 7.7 1.2 10.9 0.8-5.4-1-13.8-4.2-20.4-0.4-0.8-0.4-0.2-0.8-1.1 0-0.3-0.3-0.9-0.5-1.3-4-6.6-8.9-11.3-14.7-15 0.4 0.2 1.2 0.8 1.2 0.7-10.8-7.1-23.3-8.1-33.6-5.9-0.7 0.3-1 0.6-1.8 1 1.5-0.5 2.4-0.6 3.8-0.9 0.3-0.3-1.3 0.1-0.6-0.2 0.1 0.1 1.4-0.2 1.7-0.1 0 0.1-0.4 0.2-0.5 0.3 3.3-0.7 6.7-0.8 9.6-0.6-1.7 0.1-4.8-0.2-5.8 0.3 1-0.1 2.4-0.2 3.3-0.1-1.2 0-3.4 0.1-4.4 0.2-0.1-0.1 1.6-0.3 0.5-0.3-0.5 0.1-1.3 0.1-1.6 0.4-8.6 0.8-17 5.3-22.9 10.6-1.2 1-2.6 2.1-3.5 3.2-2.2 2.5-3.6 5-5.2 7.2 1-2.1 3.2-5.3 5.8-8 2.6-2.7 5.4-5 6.9-6.2 0 0.4 2.4-1.5 3.3-2.1-0.6 0.5 0.4-0.2 0.6-0.1 3.2-1.9 5.8-2.6 8.7-3.7-0.7 0.2-1.3 0.4-1.4 0.3 0.7-0.2 1.1-0.4 1-0.5-2.8 0.8-7.2 2.7-10.7 4.8 6.3-4.3 14.3-6.9 22.2-7 7.9-0.2 15.6 1.8 21.7 5 4.1 1.8 8 5.1 11.1 8.3 0.9 0.8 0.2-0.2 1.5 1.2-0.4-0.2-0.7-0.4-0.2 0.2 0.8 0.9-0.2-0.7 1.1 0.9-0.1 0-0.5-0.5-0.5-0.3 3.5 3.1 6.2 8.7 7.8 12.4-0.4-1.5-1.4-3.6-2.2-5.1 2.4 4.4 3.2 7 4.2 10.9 0.4 0.3-0.2-1.4 0.2-0.6 0.1 0.6 0.2 2.5 0.6 2.8-0.3-1.9-0.8-4.2-1.2-4.6 0.3 0.2-0.5-2.3-1-2.9-0.2-1.6-1.6-4.4-2.8-6.5-4.3-8.4-12-15.3-20.6-19.1 0-0.2-0.5-0.4-0.7-0.6-8.5-3.6-18.7-4.6-28.5-2.3-9.9 2.4-19.2 8.1-25.8 16.3 0.3-1 2.8-2.9 2.9-3.7-2.9 3.1-6 7.2-8.1 11.6-2.2 4.4-3.4 8.9-3.9 12.2" fill="#ffffff" fill-rule="nonzero" stroke="none" stroke-width="1" stroke-linecap="butt" stroke-linejoin="miter" stroke-miterlimit="10" stroke-dasharray="" stroke-dashoffset="0" font-family="none" font-weight="none" font-size="none" text-anchor="none" style="mix-blend-mode: normal" data-fill-palette-color="tertiary"></path></g><g transform="matrix(1,0,0,1,48,165.57599003745034)"><svg viewBox="0 0 224 28.848019925099308" height="28.848019925099308" width="224"><g><svg viewBox="0 0 277.0741573121605 35.68321790567547" height="28.848019925099308" width="224"><g transform="matrix(1,0,0,1,53.074157312160466,4.931616946442849)"><svg viewBox="0 0 224 25.81998401278977" height="25.81998401278977" width="224"><g id="textblocktransform"><svg viewBox="0 0 224 25.81998401278977" height="25.81998401278977" width="224" id="textblock"><g><svg viewBox="0 0 224 25.81998401278977" height="25.81998401278977" width="224"><g transform="matrix(1,0,0,1,0,0)"><svg width="224" viewBox="3.15 -35.3 312.72 36.05" height="25.81998401278977" data-palette-color="#ffffff"><path d="M3.15 0L7.05 0 7.05-17.2Q8.25-18.45 9.65-19.43 11.05-20.4 12.53-21 14-21.6 15.2-21.6L15.2-21.6Q17.7-21.6 18.63-20 19.55-18.4 19.55-15.9L19.55-15.9 19.55 0 23.5 0 23.5-16.4Q23.5-18.9 22.7-20.83 21.9-22.75 20.23-23.88 18.55-25 15.9-25L15.9-25Q14.3-25 12.6-24.45 10.9-23.9 9.4-22.95 7.9-22 6.75-20.8L6.75-20.8 6.05-24.25 3.15-24.25 3.15 0ZM32.15-11.5L49.75-11.5 49.75-11.85Q49.75-15.5 48.67-18.45 47.6-21.4 45.32-23.15 43.05-24.9 39.4-24.9L39.4-24.9Q35.8-24.9 33.27-23.28 30.75-21.65 29.42-18.8 28.1-15.95 28.1-12.2L28.1-12.2Q28.1-8.4 29.5-5.5 30.9-2.6 33.72-1 36.55 0.6 40.8 0.6L40.8 0.6Q42.6 0.6 44.12 0.28 45.65-0.05 46.97-0.63 48.3-1.2 49.45-1.85L49.45-1.85 48.15-4.75Q46.25-3.8 44.55-3.23 42.85-2.65 40.75-2.65L40.75-2.65Q37.75-2.65 35.9-3.8 34.05-4.95 33.17-6.95 32.3-8.95 32.15-11.5L32.15-11.5ZM45.85-14.2L32.25-14.2Q32.5-16.4 33.32-18.05 34.15-19.7 35.62-20.63 37.1-21.55 39.25-21.55L39.25-21.55Q41.35-21.55 42.72-20.63 44.1-19.7 44.85-18.05 45.6-16.4 45.85-14.2L45.85-14.2ZM51.9 0L56.35 0 62.25-9.35 68.3 0 72.65 0 65.05-11.6 73.4-24.25 69.05-24.25 62.85-14.6 56.25-24.9 52.75-23.45 60.05-12.3 51.9 0ZM87.84-20.85L86.59-23.85 82.19-23.85 82.19-31.1 78.19-30 78.19-23.85 74.69-23.85 74.74-20.85 78.19-20.85 78.19-6.3Q78.19-4 79.04-2.45 79.89-0.9 81.44-0.08 82.99 0.75 85.04 0.75L85.04 0.75Q85.74 0.75 86.44 0.63 87.14 0.5 87.74 0.3 88.34 0.1 88.74-0.1L88.74-0.1 87.79-3.2Q87.44-3.05 86.82-2.88 86.19-2.7 85.59-2.7L85.59-2.7Q83.79-2.7 82.99-3.85 82.19-5 82.19-6.85L82.19-6.85 82.19-20.85 87.84-20.85ZM97.14-20.8L97.44-17.2Q98.64-18.45 100.04-19.43 101.44-20.4 102.92-21 104.39-21.6 105.59-21.6L105.59-21.6Q108.09-21.6 109.02-20 109.94-18.4 109.94-15.9L109.94-15.9 109.94 0 113.89 0 113.89-16.4Q113.89-18.9 113.09-20.83 112.29-22.75 110.62-23.88 108.94-25 106.29-25L106.29-25Q104.69-25 102.99-24.45 101.29-23.9 99.79-22.95 98.29-22 97.14-20.8L97.14-20.8ZM93.54 0L97.44 0 97.44-35.3 93.54-34.75 93.54 0ZM122.54-11.5L140.14-11.5 140.14-11.85Q140.14-15.5 139.06-18.45 137.99-21.4 135.71-23.15 133.44-24.9 129.79-24.9L129.79-24.9Q126.19-24.9 123.66-23.28 121.14-21.65 119.81-18.8 118.49-15.95 118.49-12.2L118.49-12.2Q118.49-8.4 119.89-5.5 121.29-2.6 124.11-1 126.94 0.6 131.19 0.6L131.19 0.6Q132.99 0.6 134.51 0.28 136.04-0.05 137.36-0.63 138.69-1.2 139.84-1.85L139.84-1.85 138.54-4.75Q136.64-3.8 134.94-3.23 133.24-2.65 131.14-2.65L131.14-2.65Q128.14-2.65 126.29-3.8 124.44-4.95 123.56-6.95 122.69-8.95 122.54-11.5L122.54-11.5ZM136.24-14.2L122.64-14.2Q122.89-16.4 123.71-18.05 124.54-19.7 126.01-20.63 127.49-21.55 129.64-21.55L129.64-21.55Q131.74-21.55 133.11-20.63 134.49-19.7 135.24-18.05 135.99-16.4 136.24-14.2L136.24-14.2ZM147.94-6.9L147.94-6.9Q147.94-8.8 149.21-10.23 150.49-11.65 152.94-11.65L152.94-11.65 159.29-11.65 159.29-6.1Q158.04-4.65 156.29-3.6 154.54-2.55 152.44-2.55L152.44-2.55Q150.89-2.55 149.89-3.2 148.89-3.85 148.41-4.88 147.94-5.9 147.94-6.9ZM145.84-22.75L146.99-19.8Q148.34-20.35 149.96-20.9 151.59-21.45 153.94-21.45L153.94-21.45Q156.84-21.45 158.06-19.8 159.29-18.15 159.29-15.65L159.29-15.65 159.29-14.3 153.04-14.3Q149.14-14.3 146.69-12.38 144.24-10.45 144.24-6.9L144.24-6.9Q144.24-3.7 146.29-1.55 148.34 0.6 152.59 0.6L152.59 0.6Q154.59 0.6 156.61-0.35 158.64-1.3 159.79-2.45L159.79-2.45 160.29 0 163.29 0 163.29-16.7Q163.29-19.1 162.09-20.95 160.89-22.8 158.76-23.85 156.64-24.9 153.84-24.9L153.84-24.9Q152.84-24.9 151.29-24.63 149.74-24.35 148.26-23.88 146.79-23.4 145.84-22.75L145.84-22.75ZM185.08-34.75L185.08-3.9 186.68 0 189.08 0 189.08-35.25 185.08-34.75ZM187.48-3.45L186.23-6.3Q184.83-4.6 183.23-3.65 181.63-2.7 179.33-2.7L179.33-2.7Q176.83-2.7 175.16-3.93 173.48-5.15 172.66-7.33 171.83-9.5 171.83-12.25L171.83-12.25Q171.83-14.9 172.68-16.98 173.53-19.05 175.23-20.3 176.93-21.55 179.38-21.55L179.38-21.55Q181.78-21.55 183.36-20.63 184.93-19.7 186.33-18.15L186.33-18.15 187.53-20.85Q186.53-22.1 185.16-23 183.78-23.9 182.28-24.4 180.78-24.9 179.48-24.9L179.48-24.9Q175.88-24.9 173.26-23.28 170.63-21.65 169.23-18.8 167.83-15.95 167.83-12.2L167.83-12.2Q167.83-8.4 169.18-5.5 170.53-2.6 173.13-0.98 175.73 0.65 179.38 0.65L179.38 0.65Q180.63 0.65 182.13 0.2 183.63-0.25 185.03-1.2 186.43-2.15 187.48-3.45L187.48-3.45ZM198.38-11.5L215.98-11.5 215.98-11.85Q215.98-15.5 214.91-18.45 213.83-21.4 211.56-23.15 209.28-24.9 205.63-24.9L205.63-24.9Q202.03-24.9 199.51-23.28 196.98-21.65 195.66-18.8 194.33-15.95 194.33-12.2L194.33-12.2Q194.33-8.4 195.73-5.5 197.13-2.6 199.96-1 202.78 0.6 207.03 0.6L207.03 0.6Q208.83 0.6 210.36 0.28 211.88-0.05 213.21-0.63 214.53-1.2 215.68-1.85L215.68-1.85 214.38-4.75Q212.48-3.8 210.78-3.23 209.08-2.65 206.98-2.65L206.98-2.65Q203.98-2.65 202.13-3.8 200.28-4.95 199.41-6.95 198.53-8.95 198.38-11.5L198.38-11.5ZM212.08-14.2L198.48-14.2Q198.73-16.4 199.56-18.05 200.38-19.7 201.86-20.63 203.33-21.55 205.48-21.55L205.48-21.55Q207.58-21.55 208.96-20.63 210.33-19.7 211.08-18.05 211.83-16.4 212.08-14.2L212.08-14.2ZM220.78 0L224.68 0 224.68-16.7Q225.78-17.8 227.23-18.8 228.68-19.8 230.3-20.45 231.93-21.1 233.33-21.1L233.33-21.1 232.38-24.25Q231.08-24.25 229.55-23.6 228.03-22.95 226.65-22.03 225.28-21.1 224.33-20.35L224.33-20.35 223.13-24.25 220.78-24.25 220.78 0ZM238.08 0L238.08 0Q239.18 0 239.93-0.78 240.68-1.55 240.68-2.7L240.68-2.7Q240.68-3.8 239.93-4.58 239.18-5.35 238.08-5.35L238.08-5.35Q236.88-5.35 236.1-4.58 235.33-3.8 235.33-2.7L235.33-2.7Q235.33-1.55 236.1-0.78 236.88 0 238.08 0ZM261.07-34.75L261.07-3.9 262.67 0 265.07 0 265.07-35.25 261.07-34.75ZM263.47-3.45L262.22-6.3Q260.82-4.6 259.22-3.65 257.62-2.7 255.32-2.7L255.32-2.7Q252.82-2.7 251.15-3.93 249.47-5.15 248.65-7.33 247.82-9.5 247.82-12.25L247.82-12.25Q247.82-14.9 248.67-16.98 249.52-19.05 251.22-20.3 252.92-21.55 255.37-21.55L255.37-21.55Q257.77-21.55 259.35-20.63 260.92-19.7 262.32-18.15L262.32-18.15 263.52-20.85Q262.52-22.1 261.15-23 259.77-23.9 258.27-24.4 256.77-24.9 255.47-24.9L255.47-24.9Q251.87-24.9 249.25-23.28 246.62-21.65 245.22-18.8 243.82-15.95 243.82-12.2L243.82-12.2Q243.82-8.4 245.17-5.5 246.52-2.6 249.12-0.98 251.72 0.65 255.37 0.65L255.37 0.65Q256.62 0.65 258.12 0.2 259.62-0.25 261.02-1.2 262.42-2.15 263.47-3.45L263.47-3.45ZM274.37-11.5L291.97-11.5 291.97-11.85Q291.97-15.5 290.9-18.45 289.82-21.4 287.55-23.15 285.27-24.9 281.62-24.9L281.62-24.9Q278.02-24.9 275.5-23.28 272.97-21.65 271.65-18.8 270.32-15.95 270.32-12.2L270.32-12.2Q270.32-8.4 271.72-5.5 273.12-2.6 275.94-1 278.77 0.6 283.02 0.6L283.02 0.6Q284.82 0.6 286.35 0.28 287.87-0.05 289.19-0.63 290.52-1.2 291.67-1.85L291.67-1.85 290.37-4.75Q288.47-3.8 286.77-3.23 285.07-2.65 282.97-2.65L282.97-2.65Q279.97-2.65 278.12-3.8 276.27-4.95 275.4-6.95 274.52-8.95 274.37-11.5L274.37-11.5ZM288.07-14.2L274.47-14.2Q274.72-16.4 275.55-18.05 276.37-19.7 277.85-20.63 279.32-21.55 281.47-21.55L281.47-21.55Q283.57-21.55 284.94-20.63 286.32-19.7 287.07-18.05 287.82-16.4 288.07-14.2L288.07-14.2ZM303.02 0L306.87 0 315.87-24.25 311.92-24.25 304.97-5.35 297.72-25.05 294.12-23.5 303.02 0Z" opacity="1" transform="matrix(1,0,0,1,0,0)" fill="#ffffff" class="wordmark-text-0" data-fill-palette-color="primary" id="text-0"></path></svg></g></svg></g></svg></g></svg></g><g><svg viewBox="0 0 46.978678766357106 35.68321790567547" height="35.68321790567547" width="46.978678766357106"><g><svg xmlns="http://www.w3.org/2000/svg" xmlns:xlink="http://www.w3.org/1999/xlink" version="1.1" x="8" y="0" viewBox="11.567 6.624999944363894 72.05800006061045 83.00100005563611" enable-background="new 0 0 100 100" xml:space="preserve" height="35.68321790567547" width="30.978678766357103" class="icon-icon-0" data-fill-palette-color="accent" id="icon-0"><g fill="#ffffff" data-fill-palette-color="accent"><path d="M49.105 24.244L49.274 24.315C50.023 24.517 50.811 24.625 51.625 24.625 56.596 24.625 60.625 20.596 60.625 15.625S56.596 6.625 51.625 6.625A9 9 0 0 0 42.624 15.625C42.624 18.025 43.562 20.206 45.094 21.819L45.098 21.817 23.314 53.036 23.286 53.029A9.1 9.1 0 0 0 20.596 52.625C15.625 52.625 11.567 56.654 11.567 61.625S15.538 70.625 20.508 70.625A8.8 8.8 0 0 0 28.014 66.464L65.625 80.022 65.646 80.024A9 9 0 0 0 74.625 89.626 9 9 0 0 0 83.625 80.626 9 9 0 0 0 67.292 75.407L67.295 75.41 29.39 61.625C29.39 59.395 29 57.354 27 55.781V55.787L49.045 24.31" fill="#ffffff" data-fill-palette-color="accent"></path></g></svg></g></svg></g></svg></g></svg></g></svg></g><defs></defs></svg><rect width="320" height="360" fill="none" stroke="none" visibility="hidden"></rect></g></svg></g></svg>